<svg id="Layer_1" data-name="Layer 1" xmlns="http://www.w3.org/2000/svg" viewBox="0 0 1240 1240"><defs><style>.cls-1{fill:#fff;}</style></defs><title>Fishing App</title><path d="M660.83,209.85a40.51,40.51,0,1,0-40.5,40.5,40.5,40.5,0,0,0,40.5-40.5m24.71,0a65.21,65.21,0,1,1-65.21-65.21,65.21,65.21,0,0,1,65.21,65.21m40.09,0a105.31,105.31,0,1,0-210.61,0q0,1.41,0,2.82C516.67,308.84,600.22,419.2,620,441.28c.15.35.27.49.36.39.09.1.2,0,.35-.39C640.43,419.2,724,308.84,725.6,212.67q0-1.41,0-2.82"/><path class="cls-1" d="M492.28,738a19.52,19.52,0,0,0,14.47-6.67,13.47,13.47,0,0,0,1.69-2.4c2.45-4.29,1.79-8.68-1.85-12A20.26,20.26,0,0,0,498,712.4a18.13,18.13,0,0,0-9.22.3,18.45,18.45,0,0,0-7.63,3.75,9.15,9.15,0,0,0-3.44,7.78c.34,6.67,6.22,14.06,14.55,13.81m185.85,67.3c.45.9,1.27,1.16,1.92,1.59,6.94,4.5,13.9,9,20.81,13.48a195.34,195.34,0,0,1,20.57,15.1c10.42,9,20.81,18,30.36,27.9.8.82,1.62,1.62,2.45,2.41,2.74,2.58,5.47,5.17,8.25,7.71a13.79,13.79,0,0,0,2.4,1.68,1.16,1.16,0,0,0,1.81-.63,16.37,16.37,0,0,0,.9-3.55,109.48,109.48,0,0,0,.69-22.53,82.53,82.53,0,0,0-6.37-26.11,91.81,91.81,0,0,0-22.52-31.23A63.91,63.91,0,0,0,719,778.64a85.11,85.11,0,0,0-22.9-5.18,152.55,152.55,0,0,0-22.32-.37l-7.75.42a2.76,2.76,0,0,0,1.5.74c6.07.86,12.15,1.67,18.22,2.55a97,97,0,0,1,13.91,3A54.35,54.35,0,0,1,719,790.21a3.7,3.7,0,0,1,.55.49c.17.21.57.36.15.88a97.6,97.6,0,0,0-16.76-5.15,127.41,127.41,0,0,0-17.68-2.75c-13.5-1-15.35-1-17.69-.29l1.06.3c4,1,8,1.84,11.91,2.9a183.92,183.92,0,0,1,33.31,12.3,79.61,79.61,0,0,1,13.43,8.1,7.88,7.88,0,0,1,2.19,2.06,4.18,4.18,0,0,1-2.39-.7c-10.5-4.42-21.18-8.23-32.46-10.16a75.38,75.38,0,0,0-11.7-1.23c-.32,0-.83-.24-.94.45l2.26.94A234.09,234.09,0,0,1,714,812.65a148.42,148.42,0,0,1,25.26,17.76,83.52,83.52,0,0,1,8.9,9.14c.33.4.89.72.67,1.62-.72-.52-1.36-1-2-1.43A222.27,222.27,0,0,0,705.23,814a107.14,107.14,0,0,0-22.38-7.91,15,15,0,0,0-4.72-.71m-127.81,34.1a24.17,24.17,0,0,0-3.87-.73A30.18,30.18,0,0,1,533.18,834a55.47,55.47,0,0,1-4.93-3.64q-7-5.94-14-12c-7.51-6.57-14.83-13.37-22.5-19.76A268.44,268.44,0,0,0,433.86,762a165.5,165.5,0,0,0-33.17-11.9,79.74,79.74,0,0,0-21.16-2.26,23.19,23.19,0,0,0-7.9,1.52,9.67,9.67,0,0,0-6,6.41,17.57,17.57,0,0,0-.6,3.61,20.42,20.42,0,0,0,1.16,8,57,57,0,0,0,4.43,9.82,148.83,148.83,0,0,0,10.15,15.64c7.42,10.2,15.5,19.87,23.86,29.3,5.92,6.67,11.94,13.25,17.91,19.88.88,1,1.73,2,2.57,3a2.45,2.45,0,0,1,.15,3.17,15,15,0,0,1-1.34,1.75c-1.33,1.45-2.66,2.89-4,4.29-3,3-6,6-8.95,9.1-2.35,2.5-4.61,5.1-6.75,7.78a33.84,33.84,0,0,0-3,4.77,7,7,0,0,0-.88,3.53,3.63,3.63,0,0,0,1.79,3.29,10.35,10.35,0,0,0,2.93,1.18,20.29,20.29,0,0,0,3.89.4,52.2,52.2,0,0,0,12.38-1.59,112.6,112.6,0,0,0,26.34-9.87,196.29,196.29,0,0,0,41.54-29,54.07,54.07,0,0,0,6.45-7.07c1.75-2.25,3.69-4.37,5.45-6.63s4.15-2.68,6.81-2a14.32,14.32,0,0,1,2.33.73c1.72.75,3.46,1.49,5.1,2.39,2.43,1.34,4.77,2.86,7.2,4.21,2.21,1.24,4.45,2.43,6.75,3.49a20,20,0,0,0,11,1.75l10-1.18M575.52,719a9.37,9.37,0,0,0,1.14.85c2.07,1.14,4.2,2.2,6.24,3.4,17.75,10.34,30.53,25,37.89,44.22a119.76,119.76,0,0,1,7,31.78,40.57,40.57,0,0,0,.75,5.59,3.38,3.38,0,0,0,.21-1,140.83,140.83,0,0,0,.54-22.31A90.41,90.41,0,0,0,627,766a80.82,80.82,0,0,0-14-29.24,135.58,135.58,0,0,0-28.48-28.27A173.18,173.18,0,0,0,567,697.23c-.57-.33-1.35-.47-1.63-1.28a3.12,3.12,0,0,1,.57,0,69.78,69.78,0,0,1,13.13,4c5,2,10,4.07,14.93,6.25a21.94,21.94,0,0,0,9.77,1.91c6.63-.23,13.26-.31,19.88-.56a233,233,0,0,1,45,2.53,236.4,236.4,0,0,1,36.94,8.83,205.75,205.75,0,0,1,50.93,24.47,251.13,251.13,0,0,1,29.29,23.47c.66.6,1.29,1.25,1.9,1.91.19.2.56.39.23.89-.59-.4-1.19-.79-1.77-1.2-2.75-1.92-5.45-3.91-8.25-5.77a237,237,0,0,0-50.82-25.34,244.25,244.25,0,0,0-57.92-13.42,197.72,197.72,0,0,0-25.75-1c-2,0-4.06.24-6.09.37a5.36,5.36,0,0,0,2.71,1c4.21.62,8.41,1.26,12.62,1.87a262.45,262.45,0,0,1,29.8,6A232.54,232.54,0,0,1,790.85,795a251.17,251.17,0,0,1,18.77,21.4,6.23,6.23,0,0,1,1.44,2.44c-.82-.59-1.28-.87-1.68-1.21-2.68-2.28-5.33-4.6-8-6.87-11.3-9.6-22.87-18.84-35.06-27.28a235.86,235.86,0,0,0-37.6-21.64c-17-7.62-34.57-12.55-53.23-13.2-3.51-.13-7,0-10.55.07-.33,0-.79-.15-1,.4.41.14.78.28,1.16.4a422.83,422.83,0,0,1,42.27,15,220.4,220.4,0,0,1,35.93,18.54,152,152,0,0,1,52.61,57.52,116.33,116.33,0,0,1,13.66,62.74,123.35,123.35,0,0,1-3.77,23.47c-5.66,21.65-16.2,40.81-29.81,58.4-.18.23-.34.59-.93.41,0-.4-.08-.85-.09-1.3-.1-3.52-.12-7-.29-10.55a118.05,118.05,0,0,0-4.36-25.85,140.35,140.35,0,0,0-6.8-18.92,2.28,2.28,0,0,1-.38-1.92c.68.75,1.24,1.33,1.76,2a76.71,76.71,0,0,1,8.3,12.15,88.61,88.61,0,0,1,4.9,10.44,2.1,2.1,0,0,0,1,1.39c.08-.76.18-1.31.19-1.86a90.61,90.61,0,0,0-2.08-21.21,111.3,111.3,0,0,0-11.1-29.27,153.83,153.83,0,0,0-25.7-34.26,142.82,142.82,0,0,0-43.48-30.66,262.3,262.3,0,0,0-29.79-11.29c-3.51-1.1-7-2.27-10.48-3.46-1-.33-1.92-.83-2.95-1.29.18-4,.39-8,.53-11.87a65.17,65.17,0,0,0-.66-11.51c-.54-3.88-1-7.77-1.86-11.7-.21.23-.36.33-.41.47-.16.46-.31.93-.43,1.4a90.11,90.11,0,0,1-8.41,21.16A112,112,0,0,1,614.26,841a133.39,133.39,0,0,1-61.63,28c-2.23.4-4.49.63-7.31,1,.71-.63,1-.91,1.28-1.13a126.54,126.54,0,0,0,18.16-15.73,59.44,59.44,0,0,0,6.64-7.88c1-1.42,1.76-2.95,2.58-4.45a4.94,4.94,0,0,0,.17-1.42l-1.54,1.38c-2.77,2.42-5.46,5-8.33,7.25a182.36,182.36,0,0,1-35.88,22.08,168.25,168.25,0,0,1-41.48,14,96.7,96.7,0,0,1-15.36,1.55c-1.95,0-3.9-.19-6.09-.31a3.87,3.87,0,0,1,2.12-1.09A120.67,120.67,0,0,0,495.67,871a37.92,37.92,0,0,0,6.69-5.36c1-1.06,1.89-2.25,2.81-3.4.16-.21.43-.54-.11-.9-.52.2-1.14.39-1.71.66-2.82,1.32-5.63,2.63-8.42,4-8.9,4.34-17.82,8.61-27,12.3-15.25,6.12-30.84,10.9-47.32,12.22a91.35,91.35,0,0,1-15.69,0,77.36,77.36,0,0,1-10.17-1.58c-.41-.09-.95-.44-1.34.29a6.1,6.1,0,0,0,.35.82,14.42,14.42,0,0,0,6.08,5.55,28.52,28.52,0,0,0,8.16,2.57,64.25,64.25,0,0,0,13.22.58,134.51,134.51,0,0,0,23.54-3.3,31.21,31.21,0,0,1,6.32-.7q14.85-.13,29.7-.38c9.82-.17,19.63-.71,29.42-1.51q11.25-.91,22.44-2.45a241.67,241.67,0,0,0,29.07-5.85c9.81-2.59,19.47-5.68,29.14-8.72,11.69-3.69,23.43-7.25,35.42-9.86a91.93,91.93,0,0,1,15.3-2.14,68.75,68.75,0,0,1,27,4.14,144.08,144.08,0,0,1,37.11,20.3A97.76,97.76,0,0,1,726.37,909,64.83,64.83,0,0,1,737,930.73a43.06,43.06,0,0,1,.48,20.89,42.14,42.14,0,0,1-11.16,19.87,63.26,63.26,0,0,1-14.2,10.84c-9.38,5.37-19.48,8.85-29.93,11.4a2.62,2.62,0,0,1-.65-.09c.57-.49,1-.91,1.53-1.31,2.39-2,4.82-3.93,7.16-6a26.92,26.92,0,0,0,3.22-3.36c1.65-2,1.56-2.91-.51-4.43s-4-2.86-6.11-4.11q-10.56-6.24-21.21-12.34c-6.75-3.85-13.6-7.52-20.31-11.44-10-5.82-20.15-11.24-30.6-16.12a150.18,150.18,0,0,0-18-7.21,36.59,36.59,0,0,0-13.3-1.71,13.1,13.1,0,0,0-4.29,1,5,5,0,0,0-3.35,4.7,20.58,20.58,0,0,0,.18,3.42,27.66,27.66,0,0,0,2,7,68.74,68.74,0,0,0,5.17,9.74c3.38,5.43,7.16,10.58,10.91,15.74,3.95,5.43,7.9,10.85,11.78,16.33a137.76,137.76,0,0,1,8.84,14.15,73.7,73.7,0,0,1,5.87,13.74,33.19,33.19,0,0,1,0,20.53c-1.38,4.1-2.75,8.22-4.37,12.24-2.61,6.44-5.5,12.77-8.12,19.21-2,5-4.31,9.9-6.66,14.76-4.74,9.79-9.47,19.6-14.11,29.44a138.23,138.23,0,0,0-6.4,15.66,60.1,60.1,0,0,0-1.6,6.17,7.36,7.36,0,0,0,.15,3.89,2.71,2.71,0,0,0,2.69,2.11,12.21,12.21,0,0,0,3.37-.42,26,26,0,0,0,4.52-1.89c2.38-1.27,4.71-2.64,7-4.09,4.41-2.82,8.77-5.72,13.15-8.59,18.06-11.86,35.76-24.24,53.49-36.59,18-12.54,36-25,54.45-36.92,2.74-1.77,5.36-3.75,8-5.7s5.32-4.1,8-6.14q3.61-2.76,7.24-5.48a13.87,13.87,0,0,0,5.21-8.09c.4-1.67.69-3.37,1.08-5a10.21,10.21,0,0,1,.85-2.78,13.23,13.23,0,0,1,.67,1.6c.81,3.25,1.69,6.49,2.36,9.77a70,70,0,0,0,5.84,17.14c.73,1.46,1.54,2.89,2.39,4.28a11.82,11.82,0,0,0,1.67,2.12c2,2.06,4,2,5.85-.22a13.72,13.72,0,0,0,1.92-3.12,63.56,63.56,0,0,0,2.47-6.4,135.72,135.72,0,0,0,4.86-23.27c.62-4.54,1.1-9.1,1.59-13.65a4.53,4.53,0,0,1,1.89-3.47,214.65,214.65,0,0,0,32.62-30.43A204.79,204.79,0,0,0,839.84,928a168.82,168.82,0,0,0,17.64-54.62c1.06-7.12,1.81-14.28,2.21-21.48a216,216,0,0,0-.52-32.87,18.52,18.52,0,0,1-.23-4.34c1.5-.48,2.92-.87,4.28-1.4a5.47,5.47,0,0,0,3.48-3.07c-4-1.59-8.17-2.57-12.48-4.19.92-.32,1.48-.57,2.08-.71l17.85-4.41c.46-.11.9-.31,1.5-.52a9.13,9.13,0,0,0-.72-.83,43.23,43.23,0,0,1-6.62-7.23,115.94,115.94,0,0,1-11.13-18.19,24.87,24.87,0,0,1-1.61-4.37c-.72-2.6-1.3-5.23-2-7.85a24,24,0,0,0-2.29-5.94,7.5,7.5,0,0,0-3.75-3.39,13.6,13.6,0,0,0-2.56-.81c-1.85-.36-3.71-.62-5.57-.92a3.69,3.69,0,0,1-2.28-.93c.66-.22,1.19-.44,1.73-.56,2.39-.54,4.79-1,7.18-1.59.7-.16,1.37-.42,2.17-.67-.27-1.4-.49-2.68-.76-3.95a128.69,128.69,0,0,0-7.87-24,250.61,250.61,0,0,0-28.17-48.51c-.24-.32-.53-.6-.8-.92-.47,0-.88,0-1.28.07-4.13.54-8.26,1.12-12.4,1.63a106.2,106.2,0,0,1-14.69.88,28.64,28.64,0,0,1-2.94-.18,5.39,5.39,0,0,1-1.32-.6c.82-.34,1.33-.57,1.85-.76,2.3-.85,4.63-1.64,6.91-2.54q6.39-2.52,12.73-5.15a4.33,4.33,0,0,0,2.46-1.64,8.33,8.33,0,0,0-.58-1.3,14.29,14.29,0,0,0-1.57-2.19c-1.89-2-3.75-4.12-5.8-6a273.28,273.28,0,0,0-36.82-28.14c-1.65-1.06-3.37-2-5.1-2.95a6,6,0,0,0-2.72-1c-.22.12-.45.22-.65.35a196.06,196.06,0,0,1-25.93,13.37,57.75,57.75,0,0,1-9.95,3.46,30,30,0,0,1-4.13.46.8.8,0,0,1-1-.66c.45-.27.92-.57,1.4-.85,1.84-1.07,3.72-2.07,5.52-3.2,8.25-5.19,16.07-11,23.88-16.82a4.84,4.84,0,0,0,.73-.9,16.67,16.67,0,0,0-4.77-2.28,183.26,183.26,0,0,0-18.08-5.42c-3.57-.9-7.14-1.81-10.76-2.43-5.16-.9-10.35-1.57-15.54-2.28a74.1,74.1,0,0,0-14.2-.69c-4.81.27-9.08,1.66-12.51,5.35s-6.9,7-10.42,10.41-7.18,6.94-10.86,10.31a84,84,0,0,1-11.83,9.16,36,36,0,0,1-10.48,4.67c-4.84,1.22-9.66,2.52-14.48,3.76a5.06,5.06,0,0,0-2.26.9c2-.12,4-.3,5.94-.34a204.42,204.42,0,0,1,20.86.37c6.36.54,12.73,1,19.06,1.7,7.88.91,15.71,2.21,23.5,3.74a287.53,287.53,0,0,1,40.69,11,200.49,200.49,0,0,1,37.73,17.61,133.43,133.43,0,0,1,27.27,21.57,100.33,100.33,0,0,1,9.11,10.93c.25.34.78.68.26,1.36l-4-3.19a295.19,295.19,0,0,0-52.22-33.38c-24.65-12.21-50.72-19.63-77.92-23.25-6.57-.88-13.18-1.42-19.8-1.73a178.53,178.53,0,0,0-19.63,0c-4.08.27-8.17.42-12.25.7-6.53.46-13.07.84-19.58,1.53a221.55,221.55,0,0,0-28,4.93,320.64,320.64,0,0,0-82.85,32.51c-9,5.06-17.77,10.46-26.63,15.73-9.08,5.38-18.24,10.62-27.74,15.23a87.43,87.43,0,0,1-18.64,6.74c-3.81.87-7.56,2.09-11.31,3.23a16.94,16.94,0,0,0-5,2.49c-.31.22-.72.41-.57,1,.38,0,.78.11,1.18.15,4.47.48,9,.82,13.41,1.47a185.65,185.65,0,0,1,32.86,8,264.7,264.7,0,0,1,40.13,17.7c13.5,7.22,26.52,15.25,39.42,23.48q11.8,7.51,23.57,15.09a2.83,2.83,0,0,0,1.89.75,10.83,10.83,0,0,0-2.61-3.33c-3-2.84-6.06-5.74-9.26-8.42A486.62,486.62,0,0,0,481,761.24a151,151,0,0,0-17.86-10.75,4.57,4.57,0,0,1-.71-.61,5.39,5.39,0,0,1,1.09,0c1.59.37,3.19.72,4.76,1.16a107.06,107.06,0,0,1,18.19,7.28c8.39,4.11,16.41,8.86,24.39,13.7,1.68,1,3.38,2,5.07,3,.36.22.72.39,1.08-.07a9.08,9.08,0,0,0-2.18-3.77,39.55,39.55,0,0,0-6.23-5.9,200.13,200.13,0,0,0-33.71-21.41,42.42,42.42,0,0,1-4.63-2.75,6.38,6.38,0,0,1-2.5-3c1.17-.57,2.3-1,3.36-1.64,1.6-.89,1.84-1.52,1.32-3.21-.2-.62-.47-1.23-.66-1.85a18.83,18.83,0,0,1-.46-9.93,16.84,16.84,0,0,1,7.15-10.24c8.44-5.81,17.43-7.08,27-2.89,4.42,2,7.92,4.86,9.86,9.43a23.76,23.76,0,0,0,1.51,2.81,3.07,3.07,0,0,0,3.29,1.65c1.29-.2,2.57-.45,3.84-.77,4.44-1.13,8.85-2.35,13.3-3.41a33.55,33.55,0,0,1,10-1,29.28,29.28,0,0,1,11,3,51.74,51.74,0,0,1,8.56,5.26c6,4.54,12,9.08,17.92,13.75a128.58,128.58,0,0,1,16.66,15.58c6.64,7.5,11.94,15.78,14.62,25.55a6.05,6.05,0,0,0,.63,1,6.53,6.53,0,0,0,.1-2.92A61.87,61.87,0,0,0,608.94,754a84.42,84.42,0,0,0-13.37-17.52,127.83,127.83,0,0,0-18.06-15.1,21.72,21.72,0,0,1-2-1.48c-.15-.13,0-.56,0-.86Z"/><path d="M575.53,719c0,.3-.12.73,0,.86a21.72,21.72,0,0,0,2,1.48,127.83,127.83,0,0,1,18.06,15.1A84.62,84.62,0,0,1,608.94,754a62,62,0,0,1,7.84,24.36,6.53,6.53,0,0,1-.1,2.92,6.05,6.05,0,0,1-.63-1c-2.68-9.77-8-18.05-14.62-25.55a128.58,128.58,0,0,0-16.66-15.58c-5.9-4.67-11.91-9.21-17.92-13.75a51.74,51.74,0,0,0-8.56-5.26,29.28,29.28,0,0,0-11-3,33.55,33.55,0,0,0-10,1c-4.45,1.06-8.86,2.28-13.3,3.41-1.27.32-2.55.57-3.84.77a3.08,3.08,0,0,1-3.29-1.65,23.76,23.76,0,0,1-1.51-2.81c-1.94-4.57-5.44-7.48-9.86-9.43-9.54-4.19-18.53-2.92-27,2.89a16.84,16.84,0,0,0-7.15,10.24,18.83,18.83,0,0,0,.46,9.93c.19.62.46,1.23.66,1.85.52,1.69.28,2.32-1.32,3.2-1.06.6-2.19,1.08-3.36,1.65a6.38,6.38,0,0,0,2.5,3,42.42,42.42,0,0,0,4.63,2.75,200.53,200.53,0,0,1,33.71,21.41,39.55,39.55,0,0,1,6.23,5.9A9.08,9.08,0,0,1,517,775c-.36.46-.72.29-1.08.07-1.69-1-3.39-2-5.07-3-8-4.84-16-9.59-24.39-13.7a107.39,107.39,0,0,0-18.19-7.28c-1.57-.44-3.17-.79-4.76-1.16a5.39,5.39,0,0,0-1.09,0,4.57,4.57,0,0,0,.71.61A151,151,0,0,1,481,761.24a486.62,486.62,0,0,1,40.87,30.58c3.2,2.68,6.21,5.57,9.26,8.42a10.83,10.83,0,0,1,2.61,3.33,2.83,2.83,0,0,1-1.89-.75q-11.79-7.55-23.57-15.09c-12.9-8.23-25.92-16.26-39.42-23.48a265.14,265.14,0,0,0-40.13-17.7,185.65,185.65,0,0,0-32.86-8c-4.45-.65-8.94-1-13.41-1.47-.4,0-.8-.1-1.18-.15-.15-.59.26-.78.57-1a16.94,16.94,0,0,1,5-2.49c3.75-1.14,7.5-2.36,11.31-3.23a87.43,87.43,0,0,0,18.64-6.74c9.51-4.61,18.66-9.85,27.74-15.23,8.86-5.26,17.65-10.68,26.63-15.73A320.64,320.64,0,0,1,554.08,660a221.55,221.55,0,0,1,28-4.93c6.51-.69,13-1.07,19.58-1.53,4.08-.28,8.17-.43,12.25-.7a178.53,178.53,0,0,1,19.63,0c6.63.3,13.23.85,19.8,1.73,27.2,3.62,53.26,11,77.92,23.25a295.19,295.19,0,0,1,52.22,33.38l4,3.19c.52-.68,0-1-.26-1.36a99.29,99.29,0,0,0-9.12-10.93,133.1,133.1,0,0,0-27.26-21.57,200.49,200.49,0,0,0-37.73-17.61,287.53,287.53,0,0,0-40.69-11c-7.79-1.53-15.62-2.83-23.5-3.74-6.33-.72-12.7-1.16-19.06-1.7a201.58,201.58,0,0,0-20.86-.37c-2,0-3.91.22-5.94.34a5.06,5.06,0,0,1,2.26-.9c4.83-1.24,9.64-2.54,14.47-3.76a35.94,35.94,0,0,0,10.49-4.67A84,84,0,0,0,642.14,628c3.68-3.37,7.28-6.83,10.86-10.31s7.08-6.82,10.42-10.41,7.7-5.08,12.51-5.35a74.1,74.1,0,0,1,14.2.69c5.19.71,10.38,1.38,15.54,2.28,3.62.63,7.19,1.53,10.76,2.43a183.26,183.26,0,0,1,18.08,5.42,16.67,16.67,0,0,1,4.77,2.28,4.84,4.84,0,0,1-.73.9c-7.81,5.82-15.63,11.63-23.88,16.82-1.8,1.13-3.68,2.13-5.52,3.2-.48.28-.95.58-1.4.85a.8.8,0,0,0,1,.66,30,30,0,0,0,4.13-.46,57.75,57.75,0,0,0,9.95-3.46,196.06,196.06,0,0,0,25.93-13.37c.2-.13.43-.23.65-.35a6,6,0,0,1,2.72,1c1.73.94,3.45,1.89,5.1,2.95A273.28,273.28,0,0,1,794,651.92c2.05,1.88,3.91,4,5.8,6a14.29,14.29,0,0,1,1.57,2.19,8.33,8.33,0,0,1,.58,1.3,4.33,4.33,0,0,1-2.46,1.64q-6.35,2.63-12.73,5.15c-2.28.9-4.61,1.69-6.91,2.54-.52.19-1,.42-1.85.77a5.66,5.66,0,0,0,1.32.59,28.64,28.64,0,0,0,2.94.18A106.2,106.2,0,0,0,797,671.4c4.14-.51,8.27-1.09,12.4-1.63.4,0,.81,0,1.28-.07.27.32.56.6.8.92a250.61,250.61,0,0,1,28.17,48.51,128.93,128.93,0,0,1,7.87,24c.27,1.27.49,2.55.76,3.95-.8.25-1.47.51-2.17.67-2.39.55-4.79,1-7.18,1.59-.54.12-1.07.34-1.73.56a3.69,3.69,0,0,0,2.28.93c1.86.3,3.72.56,5.57.92a13.6,13.6,0,0,1,2.56.81,7.5,7.5,0,0,1,3.75,3.39,24,24,0,0,1,2.29,5.94c.65,2.62,1.23,5.25,2,7.85a24.87,24.87,0,0,0,1.61,4.37,115.94,115.94,0,0,0,11.13,18.19,43.23,43.23,0,0,0,6.62,7.23,9.13,9.13,0,0,1,.72.83c-.6.21-1,.41-1.5.52l-17.85,4.41c-.6.14-1.16.39-2.08.71,4.31,1.62,8.44,2.6,12.48,4.19a5.5,5.5,0,0,1-3.48,3.07c-1.36.53-2.78.92-4.28,1.4a18.52,18.52,0,0,0,.23,4.34,216,216,0,0,1,.52,32.87c-.4,7.2-1.15,14.36-2.21,21.48A168.82,168.82,0,0,1,839.84,928a204.79,204.79,0,0,1-27.23,40.13A214.65,214.65,0,0,1,780,998.51a4.53,4.53,0,0,0-1.89,3.47c-.49,4.55-1,9.11-1.59,13.65a135.72,135.72,0,0,1-4.86,23.27,66.05,66.05,0,0,1-2.47,6.4,13.72,13.72,0,0,1-1.92,3.12c-1.82,2.23-3.81,2.28-5.85.22a12.18,12.18,0,0,1-1.67-2.12c-.85-1.39-1.66-2.82-2.39-4.28a70.39,70.39,0,0,1-5.84-17.14c-.67-3.28-1.55-6.52-2.36-9.77a13.23,13.23,0,0,0-.67-1.6,10.21,10.21,0,0,0-.85,2.78c-.39,1.67-.68,3.37-1.09,5a13.75,13.75,0,0,1-5.2,8.08q-3.63,2.73-7.24,5.49c-2.66,2-5.28,4.14-8,6.14s-5.24,3.93-8,5.7c-18.43,11.9-36.46,24.38-54.45,36.92-17.73,12.35-35.43,24.73-53.49,36.59-4.38,2.87-8.74,5.77-13.15,8.59-2.28,1.45-4.61,2.82-7,4.09a26,26,0,0,1-4.52,1.89,12.21,12.21,0,0,1-3.37.42,2.71,2.71,0,0,1-2.69-2.11,7.36,7.36,0,0,1-.15-3.89,60.1,60.1,0,0,1,1.6-6.17,138.23,138.23,0,0,1,6.4-15.66c4.64-9.84,9.37-19.65,14.11-29.44,2.35-4.86,4.62-9.75,6.66-14.76,2.62-6.44,5.51-12.77,8.12-19.21,1.62-4,3-8.14,4.37-12.25a33.15,33.15,0,0,0,0-20.52,73.7,73.7,0,0,0-5.87-13.74,137.76,137.76,0,0,0-8.84-14.15c-3.88-5.48-7.83-10.9-11.78-16.33-3.75-5.16-7.53-10.31-10.91-15.74a68.74,68.74,0,0,1-5.17-9.74,27.66,27.66,0,0,1-2-7,20.58,20.58,0,0,1-.18-3.42,5,5,0,0,1,3.34-4.7,13.22,13.22,0,0,1,4.29-1,36.62,36.62,0,0,1,13.31,1.71,150.18,150.18,0,0,1,18,7.21c10.45,4.88,20.63,10.3,30.6,16.12,6.71,3.92,13.56,7.59,20.31,11.44q10.65,6.09,21.21,12.34c2.11,1.25,4.13,2.66,6.11,4.11s2.16,2.41.51,4.43a27.66,27.66,0,0,1-3.22,3.36c-2.34,2-4.77,4-7.16,6-.49.4-1,.82-1.53,1.31a2.62,2.62,0,0,0,.65.09c10.45-2.55,20.55-6,29.93-11.4a63.26,63.26,0,0,0,14.2-10.84,42.14,42.14,0,0,0,11.16-19.87,43.06,43.06,0,0,0-.48-20.89A64.83,64.83,0,0,0,726.37,909a97.76,97.76,0,0,0-20.71-20.81,144.08,144.08,0,0,0-37.11-20.3,68.75,68.75,0,0,0-27-4.14,91.93,91.93,0,0,0-15.3,2.14c-12,2.61-23.73,6.17-35.43,9.86-9.66,3-19.32,6.13-29.13,8.72a241.67,241.67,0,0,1-29.07,5.85q-11.19,1.54-22.44,2.45c-9.8.8-19.6,1.34-29.42,1.51s-19.8.29-29.7.38a31.21,31.21,0,0,0-6.32.7,134.51,134.51,0,0,1-23.54,3.3,63.56,63.56,0,0,1-13.22-.58,28.52,28.52,0,0,1-8.16-2.57,14.42,14.42,0,0,1-6.08-5.55,6.1,6.1,0,0,1-.35-.82c.39-.73.93-.38,1.33-.29a77.77,77.77,0,0,0,10.18,1.58,91.35,91.35,0,0,0,15.69,0c16.48-1.32,32.07-6.1,47.32-12.22,9.19-3.69,18.11-8,27-12.3,2.79-1.37,5.6-2.68,8.42-4,.57-.27,1.19-.46,1.71-.66.54.36.27.69.1.9-.91,1.15-1.79,2.34-2.8,3.4a38.08,38.08,0,0,1-6.7,5.36,120.41,120.41,0,0,1-28.07,13.32,3.87,3.87,0,0,0-2.12,1.09c2.19.12,4.14.36,6.09.31a96.7,96.7,0,0,0,15.36-1.55,168.25,168.25,0,0,0,41.48-14,182.36,182.36,0,0,0,35.88-22.08c2.87-2.3,5.56-4.83,8.33-7.25l1.54-1.38a4.94,4.94,0,0,1-.17,1.42c-.82,1.5-1.63,3-2.58,4.45a59.44,59.44,0,0,1-6.64,7.88,126.54,126.54,0,0,1-18.16,15.73c-.31.22-.57.5-1.28,1.13,2.82-.39,5.08-.62,7.31-1a133.39,133.39,0,0,0,61.63-28,112,112,0,0,0,28.22-33.33,89.68,89.68,0,0,0,8.41-21.16c.12-.47.27-.94.43-1.4,0-.14.2-.24.41-.47.85,3.93,1.32,7.82,1.86,11.7a65.17,65.17,0,0,1,.66,11.51c-.14,3.91-.35,7.83-.53,11.87,1,.46,2,1,2.95,1.29,3.48,1.19,7,2.36,10.48,3.46a262.3,262.3,0,0,1,29.79,11.29,142.65,142.65,0,0,1,43.48,30.66,153.53,153.53,0,0,1,25.7,34.26,111.3,111.3,0,0,1,11.1,29.27,90.61,90.61,0,0,1,2.08,21.21c0,.55-.11,1.1-.19,1.86a2.1,2.1,0,0,1-1-1.39,88.61,88.61,0,0,0-4.9-10.44,76.71,76.71,0,0,0-8.3-12.15c-.52-.62-1.08-1.2-1.76-2a2.29,2.29,0,0,0,.38,1.92,140.35,140.35,0,0,1,6.8,18.92,118.05,118.05,0,0,1,4.36,25.85c.17,3.51.19,7,.29,10.55,0,.45.06.9.09,1.29.59.19.75-.17.93-.4,13.61-17.59,24.15-36.75,29.81-58.4a123.35,123.35,0,0,0,3.77-23.47,116.33,116.33,0,0,0-13.66-62.74,152,152,0,0,0-52.61-57.52,220.4,220.4,0,0,0-35.93-18.54,422.83,422.83,0,0,0-42.27-15c-.38-.12-.75-.26-1.16-.4.21-.55.67-.39,1-.4,3.51-.05,7-.2,10.55-.07,18.67.65,36.28,5.58,53.23,13.2a235.86,235.86,0,0,1,37.6,21.64c12.19,8.44,23.76,17.68,35.06,27.28,2.68,2.27,5.33,4.59,8,6.87.4.34.86.62,1.68,1.21a6.12,6.12,0,0,0-1.44-2.44A251.17,251.17,0,0,0,790.85,795,232.54,232.54,0,0,0,682.44,732.1a262.45,262.45,0,0,0-29.8-6c-4.21-.61-8.41-1.25-12.62-1.87a5.36,5.36,0,0,1-2.71-1c2-.13,4.06-.32,6.09-.37a196,196,0,0,1,25.75,1,244.25,244.25,0,0,1,57.92,13.42,237,237,0,0,1,50.82,25.34c2.8,1.86,5.5,3.85,8.25,5.77.58.41,1.18.8,1.77,1.2.33-.5,0-.69-.23-.89-.61-.66-1.24-1.31-1.9-1.91a251.13,251.13,0,0,0-29.29-23.47,205.75,205.75,0,0,0-50.93-24.47A236.4,236.4,0,0,0,668.62,710a233,233,0,0,0-45-2.53c-6.63.25-13.25.33-19.88.56a21.94,21.94,0,0,1-9.77-1.91C589,704,584,701.93,579,699.9a69.78,69.78,0,0,0-13.13-4,3.12,3.12,0,0,0-.57,0c.28.81,1.06.95,1.63,1.28a173.18,173.18,0,0,1,17.53,11.29A135.58,135.58,0,0,1,613,736.79,80.66,80.66,0,0,1,627,766a90.41,90.41,0,0,1,2.3,15.52,140.83,140.83,0,0,1-.54,22.31,3.38,3.38,0,0,1-.21,1,40.57,40.57,0,0,1-.75-5.59,119.76,119.76,0,0,0-7-31.78c-7.36-19.25-20.14-33.88-37.89-44.22-2-1.2-4.17-2.26-6.24-3.4a9.37,9.37,0,0,1-1.14-.85l-.39.1a.71.71,0,0,0-.18.12l.2-.07.38-.13"/><path d="M550.32,839.44l-10,1.18a20,20,0,0,1-11-1.75c-2.3-1.06-4.54-2.25-6.75-3.49-2.43-1.35-4.76-2.87-7.2-4.21-1.64-.9-3.38-1.64-5.1-2.39a14.32,14.32,0,0,0-2.33-.73c-2.66-.68-5-.32-6.81,2s-3.7,4.38-5.45,6.63a54.07,54.07,0,0,1-6.45,7.07,196.29,196.29,0,0,1-41.54,29,112.6,112.6,0,0,1-26.34,9.87,52.2,52.2,0,0,1-12.38,1.59,20.29,20.29,0,0,1-3.89-.4,10.35,10.35,0,0,1-2.93-1.18,3.63,3.63,0,0,1-1.79-3.29,7.07,7.07,0,0,1,.88-3.54,35.22,35.22,0,0,1,3-4.76q3.22-4,6.76-7.78c2.91-3.1,6-6.06,8.95-9.1,1.38-1.4,2.71-2.84,4-4.29a15,15,0,0,0,1.34-1.75,2.45,2.45,0,0,0-.15-3.17c-.84-1-1.69-2-2.57-3-6-6.63-12-13.21-17.91-19.88-8.36-9.43-16.44-19.11-23.86-29.3a148.83,148.83,0,0,1-10.15-15.64,57,57,0,0,1-4.43-9.82,20.58,20.58,0,0,1-1.16-8,17.57,17.57,0,0,1,.6-3.61,9.67,9.67,0,0,1,6-6.41,23,23,0,0,1,7.9-1.52,80.15,80.15,0,0,1,21.16,2.26A165.5,165.5,0,0,1,433.86,762a268.44,268.44,0,0,1,57.93,36.59c7.67,6.39,15,13.19,22.5,19.76q6.93,6.06,14,12a55.47,55.47,0,0,0,4.93,3.64,30.18,30.18,0,0,0,13.27,4.74,24.17,24.17,0,0,1,3.87.73"/><path d="M678.13,805.34a15,15,0,0,1,4.72.71A107.14,107.14,0,0,1,705.23,814a222.27,222.27,0,0,1,41.66,25.78c.62.47,1.26.91,2,1.43.22-.9-.34-1.22-.67-1.62a83.52,83.52,0,0,0-8.9-9.14A148.42,148.42,0,0,0,714,812.65a234.09,234.09,0,0,0-29.84-14.3l-2.27-.94c.12-.7.63-.46,1-.45a75.38,75.38,0,0,1,11.7,1.23c11.27,1.93,22,5.74,32.46,10.16a4.18,4.18,0,0,0,2.39.7,7.88,7.88,0,0,0-2.19-2.06,79.61,79.61,0,0,0-13.43-8.1,183.64,183.64,0,0,0-33.31-12.3c-3.94-1.06-7.94-1.94-11.91-2.9l-1.06-.3c2.34-.75,4.19-.75,17.69.28a130.5,130.5,0,0,1,17.68,2.76,97.6,97.6,0,0,1,16.76,5.15c.42-.52,0-.67-.15-.88a3.7,3.7,0,0,0-.55-.49,54.27,54.27,0,0,0-19.28-10.45,97,97,0,0,0-13.91-3c-6.07-.88-12.15-1.69-18.22-2.55a2.73,2.73,0,0,1-1.5-.74l7.75-.42a152.55,152.55,0,0,1,22.32.37,85.11,85.11,0,0,1,22.9,5.18,63.91,63.91,0,0,1,20.38,12.52,91.81,91.81,0,0,1,22.52,31.23,82.53,82.53,0,0,1,6.37,26.11A109.48,109.48,0,0,1,767.6,871a16.22,16.22,0,0,1-.9,3.55,1.16,1.16,0,0,1-1.81.63,13.27,13.27,0,0,1-2.4-1.68c-2.78-2.54-5.51-5.13-8.25-7.71-.83-.79-1.65-1.59-2.45-2.41-9.55-9.92-19.94-18.93-30.36-27.91a195.63,195.63,0,0,0-20.57-15.09c-6.91-4.53-13.88-9-20.81-13.48-.65-.43-1.47-.69-1.92-1.59"/><path d="M492.28,738c-8.33.25-14.21-7.14-14.55-13.81a9.15,9.15,0,0,1,3.44-7.78,18.45,18.45,0,0,1,7.63-3.75,18.13,18.13,0,0,1,9.22-.3,20.26,20.26,0,0,1,8.57,4.57c3.64,3.32,4.3,7.71,1.85,12a13.47,13.47,0,0,1-1.69,2.4A19.52,19.52,0,0,1,492.28,738"/><path class="cls-1" d="M575.53,719l-.38.13-.2.07a.71.71,0,0,1,.18-.12l.39-.1v0"/><path d="M191,482.62h22v60.17h38.49V562.1H191Z"/><path d="M258.44,522.58v-.22c0-22.83,18.4-41.33,42.92-41.33s42.69,18.28,42.69,41.1v.23c0,22.82-18.39,41.33-42.92,41.33S258.44,545.41,258.44,522.58Zm63.13,0v-.22c0-11.47-8.29-21.46-20.44-21.46S281,510.66,281,522.13v.23c0,11.46,8.29,21.46,20.32,21.46S321.57,534.05,321.57,522.58Z"/><path d="M354.15,522.58v-.22c0-23.17,18.17-41.33,42.81-41.33,14,0,23.84,4.31,32.24,11.58l-12.94,15.55c-5.68-4.77-11.35-7.49-19.19-7.49-11.47,0-20.32,9.65-20.32,21.8v.23c0,12.83,9,22,21.57,22,5.34,0,9.42-1.13,12.72-3.29v-9.65H395.37V515.66h36.56v35.76a53.72,53.72,0,0,1-34.52,12.27C372.66,563.69,354.15,546.66,354.15,522.58Z"/><path d="M447.71,517.13H485v19H447.71Z"/><path d="M524.23,482.05h21.23L579.3,562.1H555.68l-5.79-14.2H519.24l-5.68,14.2H490.4Zm19.3,48.71-8.85-22.6-9,22.6Z"/><path d="M585,517.13h37.25v19H585Z"/><path d="M639.58,522.58v-.22c0-23.17,17.83-41.33,41.9-41.33,16.24,0,26.68,6.81,33.72,16.57l-16.57,12.83c-4.55-5.67-9.77-9.31-17.38-9.31-11.12,0-19,9.43-19,21v.23c0,11.92,7.84,21.23,19,21.23,8.29,0,13.17-3.86,17.94-9.65l16.58,11.81c-7.49,10.33-17.6,17.94-35.2,17.94C657.86,563.69,639.58,546.31,639.58,522.58Z"/><path d="M756.07,482.05h21.24l33.83,80.05H787.52l-5.79-14.2H751.08l-5.68,14.2H722.24Zm19.31,48.71-8.86-22.6-9,22.6Z"/><path d="M831.8,501.92H808v-19.3h69.71v19.3H853.83V562.1h-22Z"/><path d="M886.75,522.58v-.22c0-23.17,17.83-41.33,41.9-41.33,16.23,0,26.68,6.81,33.72,16.57l-16.58,12.83c-4.54-5.67-9.76-9.31-17.37-9.31-11.13,0-19,9.43-19,21v.23c0,11.92,7.83,21.23,19,21.23,8.29,0,13.17-3.86,17.94-9.65l16.58,11.81c-7.5,10.33-17.6,17.94-35.2,17.94C905,563.69,886.75,546.31,886.75,522.58Z"/><path d="M976.67,482.62h22v29.74H1027V482.62h22V562.1h-22V531.89H998.7V562.1h-22Z"/></svg>